<mxfile host="app.diagrams.net" agent="Mozilla/5.0 (Windows NT 10.0; Win64; x64) AppleWebKit/537.36 (KHTML, like Gecko) Chrome/131.0.0.0 Safari/537.36" version="24.9.3">
  <diagram name="Pagina-1" id="NvEwHA1TjwrVzPqr-d6n">
    <mxGraphModel dx="3453" dy="2229" grid="1" gridSize="10" guides="1" tooltips="1" connect="1" arrows="1" fold="1" page="1" pageScale="1" pageWidth="827" pageHeight="1169" math="0" shadow="0">
      <root>
        <mxCell id="0" />
        <mxCell id="1" parent="0" />
        <mxCell id="K-8qHRho2wafCJRZF7-B-65" value="" style="rounded=0;whiteSpace=wrap;html=1;fillColor=none;" parent="1" vertex="1">
          <mxGeometry x="-20" y="-470" width="1430" height="970" as="geometry" />
        </mxCell>
        <mxCell id="K-8qHRho2wafCJRZF7-B-64" value="" style="rounded=0;whiteSpace=wrap;html=1;fillColor=none;" parent="1" vertex="1">
          <mxGeometry x="290" y="-420" width="1110" height="740" as="geometry" />
        </mxCell>
        <mxCell id="K-8qHRho2wafCJRZF7-B-3" value="Eventbus" style="shape=cylinder3;whiteSpace=wrap;html=1;boundedLbl=1;backgroundOutline=1;size=15;fillColor=#E6E6E6;" parent="1" vertex="1">
          <mxGeometry x="1200" y="-268.25" width="110" height="538.25" as="geometry" />
        </mxCell>
        <mxCell id="K-8qHRho2wafCJRZF7-B-4" value="Review Service" style="rounded=1;whiteSpace=wrap;html=1;verticalAlign=top;" parent="1" vertex="1">
          <mxGeometry x="409" y="-32.5" width="385" height="100" as="geometry" />
        </mxCell>
        <mxCell id="K-8qHRho2wafCJRZF7-B-5" value="Comment Service" style="rounded=1;whiteSpace=wrap;html=1;strokeColor=default;verticalAlign=top;" parent="1" vertex="1">
          <mxGeometry x="414" y="180" width="380" height="100" as="geometry" />
        </mxCell>
        <mxCell id="K-8qHRho2wafCJRZF7-B-9" value="PostService" style="rounded=1;whiteSpace=wrap;html=1;verticalAlign=top;" parent="1" vertex="1">
          <mxGeometry x="419" y="-290" width="380" height="100" as="geometry" />
        </mxCell>
        <mxCell id="K-8qHRho2wafCJRZF7-B-11" value="RabbitMQ" style="ellipse;shape=cloud;whiteSpace=wrap;html=1;fillColor=#FF8000;" parent="1" vertex="1">
          <mxGeometry x="1310" y="-5" width="90" height="55" as="geometry" />
        </mxCell>
        <mxCell id="K-8qHRho2wafCJRZF7-B-12" value="SQL Database" style="shape=cylinder3;whiteSpace=wrap;html=1;boundedLbl=1;backgroundOutline=1;size=15;strokeColor=#CC6600;fillColor=#FF9933;" parent="1" vertex="1">
          <mxGeometry x="695" y="190" width="60" height="80" as="geometry" />
        </mxCell>
        <mxCell id="K-8qHRho2wafCJRZF7-B-14" value="API" style="shape=process;whiteSpace=wrap;html=1;backgroundOutline=1;fillColor=#FF9933;" parent="1" vertex="1">
          <mxGeometry x="435" y="215" width="120" height="30" as="geometry" />
        </mxCell>
        <mxCell id="K-8qHRho2wafCJRZF7-B-16" value="API" style="shape=process;whiteSpace=wrap;html=1;backgroundOutline=1;fillColor=#FF6666;" parent="1" vertex="1">
          <mxGeometry x="440" y="-255" width="120" height="30" as="geometry" />
        </mxCell>
        <mxCell id="K-8qHRho2wafCJRZF7-B-17" value="SQL Database" style="shape=cylinder3;whiteSpace=wrap;html=1;boundedLbl=1;backgroundOutline=1;size=15;strokeColor=#FF3333;fillColor=#FF6666;" parent="1" vertex="1">
          <mxGeometry x="700" y="-280" width="60" height="80" as="geometry" />
        </mxCell>
        <mxCell id="K-8qHRho2wafCJRZF7-B-18" value="async" style="edgeStyle=orthogonalEdgeStyle;rounded=0;orthogonalLoop=1;jettySize=auto;html=1;exitX=1;exitY=0.5;exitDx=0;exitDy=0;startArrow=classic;startFill=1;entryX=0.011;entryY=0.925;entryDx=0;entryDy=0;entryPerimeter=0;" parent="1" source="K-8qHRho2wafCJRZF7-B-5" target="K-8qHRho2wafCJRZF7-B-3" edge="1">
          <mxGeometry x="0.079" relative="1" as="geometry">
            <mxPoint as="offset" />
            <Array as="points" />
          </mxGeometry>
        </mxCell>
        <mxCell id="K-8qHRho2wafCJRZF7-B-20" value="API" style="shape=process;whiteSpace=wrap;html=1;backgroundOutline=1;fillColor=#6666FF;" parent="1" vertex="1">
          <mxGeometry x="430" y="-2.5" width="120" height="30" as="geometry" />
        </mxCell>
        <mxCell id="K-8qHRho2wafCJRZF7-B-21" value="SQL Database" style="shape=cylinder3;whiteSpace=wrap;html=1;boundedLbl=1;backgroundOutline=1;size=15;strokeColor=#3333FF;fillColor=#6666FF;" parent="1" vertex="1">
          <mxGeometry x="690" y="-27.5" width="60" height="80" as="geometry" />
        </mxCell>
        <mxCell id="K-8qHRho2wafCJRZF7-B-22" value="async" style="edgeStyle=orthogonalEdgeStyle;rounded=0;orthogonalLoop=1;jettySize=auto;html=1;exitX=1;exitY=0.5;exitDx=0;exitDy=0;startArrow=classic;startFill=1;" parent="1" source="K-8qHRho2wafCJRZF7-B-4" target="K-8qHRho2wafCJRZF7-B-3" edge="1">
          <mxGeometry relative="1" as="geometry">
            <mxPoint x="804" y="240" as="sourcePoint" />
            <mxPoint x="979" y="240" as="targetPoint" />
            <Array as="points">
              <mxPoint x="1100" y="18" />
              <mxPoint x="1100" y="18" />
            </Array>
          </mxGeometry>
        </mxCell>
        <mxCell id="K-8qHRho2wafCJRZF7-B-25" value="async" style="edgeStyle=orthogonalEdgeStyle;rounded=0;orthogonalLoop=1;jettySize=auto;html=1;exitX=1;exitY=0.75;exitDx=0;exitDy=0;startArrow=classic;startFill=1;entryX=0.006;entryY=0.102;entryDx=0;entryDy=0;entryPerimeter=0;" parent="1" source="K-8qHRho2wafCJRZF7-B-9" target="K-8qHRho2wafCJRZF7-B-3" edge="1">
          <mxGeometry relative="1" as="geometry">
            <mxPoint x="809" y="110" as="sourcePoint" />
            <mxPoint x="981" y="113" as="targetPoint" />
            <Array as="points" />
          </mxGeometry>
        </mxCell>
        <mxCell id="K-8qHRho2wafCJRZF7-B-26" value="" style="html=1;verticalLabelPosition=bottom;align=center;labelBackgroundColor=#ffffff;verticalAlign=top;strokeWidth=2;strokeColor=#000000;shadow=0;dashed=0;shape=mxgraph.ios7.icons.mail;" parent="1" vertex="1">
          <mxGeometry x="990" y="-248.25" width="30" height="16.5" as="geometry" />
        </mxCell>
        <mxCell id="K-8qHRho2wafCJRZF7-B-27" value="" style="html=1;verticalLabelPosition=bottom;align=center;labelBackgroundColor=#ffffff;verticalAlign=top;strokeWidth=2;strokeColor=#000000;shadow=0;dashed=0;shape=mxgraph.ios7.icons.mail;" parent="1" vertex="1">
          <mxGeometry x="980" y="-7.3700000000000045" width="30" height="16.5" as="geometry" />
        </mxCell>
        <mxCell id="K-8qHRho2wafCJRZF7-B-28" value="" style="html=1;verticalLabelPosition=bottom;align=center;labelBackgroundColor=#ffffff;verticalAlign=top;strokeWidth=2;strokeColor=#000000;shadow=0;dashed=0;shape=mxgraph.ios7.icons.mail;" parent="1" vertex="1">
          <mxGeometry x="1000" y="198.5" width="30" height="16.5" as="geometry" />
        </mxCell>
        <mxCell id="K-8qHRho2wafCJRZF7-B-32" value="API GateWay" style="rounded=0;whiteSpace=wrap;html=1;" parent="1" vertex="1">
          <mxGeometry x="25" y="-25" width="215" height="80" as="geometry" />
        </mxCell>
        <mxCell id="K-8qHRho2wafCJRZF7-B-33" value="Auth Servcer&lt;div&gt;[KeyCloak ]&lt;/div&gt;" style="rounded=0;whiteSpace=wrap;html=1;" parent="1" vertex="1">
          <mxGeometry x="30" y="124" width="205" height="85" as="geometry" />
        </mxCell>
        <mxCell id="K-8qHRho2wafCJRZF7-B-35" value="Config Server" style="rounded=0;whiteSpace=wrap;html=1;" parent="1" vertex="1">
          <mxGeometry x="605" y="380" width="150" height="50" as="geometry" />
        </mxCell>
        <mxCell id="K-8qHRho2wafCJRZF7-B-36" value="Eureka" style="rounded=0;whiteSpace=wrap;html=1;" parent="1" vertex="1">
          <mxGeometry x="414" y="380" width="142.5" height="50" as="geometry" />
        </mxCell>
        <mxCell id="K-8qHRho2wafCJRZF7-B-37" value="HoofdRedacteur" style="shape=umlActor;verticalLabelPosition=bottom;verticalAlign=top;html=1;outlineConnect=0;" parent="1" vertex="1">
          <mxGeometry x="-850" y="-12.5" width="30" height="60" as="geometry" />
        </mxCell>
        <mxCell id="K-8qHRho2wafCJRZF7-B-41" value="Redacteur" style="shape=umlActor;verticalLabelPosition=bottom;verticalAlign=top;html=1;outlineConnect=0;" parent="1" vertex="1">
          <mxGeometry x="-710" y="-12.5" width="30" height="60" as="geometry" />
        </mxCell>
        <mxCell id="K-8qHRho2wafCJRZF7-B-42" value="Gebruiker" style="shape=umlActor;verticalLabelPosition=bottom;verticalAlign=top;html=1;outlineConnect=0;" parent="1" vertex="1">
          <mxGeometry x="-580" y="-12.5" width="30" height="60" as="geometry" />
        </mxCell>
        <mxCell id="K-8qHRho2wafCJRZF7-B-51" value="" style="endArrow=classic;html=1;rounded=0;" parent="1" edge="1">
          <mxGeometry width="50" height="50" relative="1" as="geometry">
            <mxPoint x="-800" y="22.5" as="sourcePoint" />
            <mxPoint x="-720" y="22.5" as="targetPoint" />
          </mxGeometry>
        </mxCell>
        <mxCell id="K-8qHRho2wafCJRZF7-B-52" value="" style="endArrow=classic;html=1;rounded=0;" parent="1" edge="1">
          <mxGeometry width="50" height="50" relative="1" as="geometry">
            <mxPoint x="-670" y="16.909999999999997" as="sourcePoint" />
            <mxPoint x="-590" y="16.909999999999997" as="targetPoint" />
          </mxGeometry>
        </mxCell>
        <mxCell id="K-8qHRho2wafCJRZF7-B-54" value="" style="endArrow=classic;html=1;rounded=0;entryX=0.5;entryY=0;entryDx=0;entryDy=0;exitX=0.5;exitY=1;exitDx=0;exitDy=0;" parent="1" source="K-8qHRho2wafCJRZF7-B-32" target="K-8qHRho2wafCJRZF7-B-33" edge="1">
          <mxGeometry width="50" height="50" relative="1" as="geometry">
            <mxPoint x="133" y="50" as="sourcePoint" />
            <mxPoint x="130.05999999999995" y="120.15000000000009" as="targetPoint" />
          </mxGeometry>
        </mxCell>
        <mxCell id="K-8qHRho2wafCJRZF7-B-57" value="" style="endArrow=classic;html=1;rounded=0;exitX=1;exitY=0.5;exitDx=0;exitDy=0;entryX=0.006;entryY=0.391;entryDx=0;entryDy=0;entryPerimeter=0;" parent="1" source="K-8qHRho2wafCJRZF7-B-32" target="K-8qHRho2wafCJRZF7-B-9" edge="1">
          <mxGeometry width="50" height="50" relative="1" as="geometry">
            <mxPoint x="370" y="180" as="sourcePoint" />
            <mxPoint x="420" y="130" as="targetPoint" />
          </mxGeometry>
        </mxCell>
        <mxCell id="K-8qHRho2wafCJRZF7-B-58" value="" style="endArrow=classic;html=1;rounded=0;entryX=0;entryY=0.5;entryDx=0;entryDy=0;" parent="1" target="K-8qHRho2wafCJRZF7-B-4" edge="1">
          <mxGeometry width="50" height="50" relative="1" as="geometry">
            <mxPoint x="240" y="20" as="sourcePoint" />
            <mxPoint x="426" y="-26" as="targetPoint" />
          </mxGeometry>
        </mxCell>
        <mxCell id="K-8qHRho2wafCJRZF7-B-59" value="" style="endArrow=classic;html=1;rounded=0;entryX=0;entryY=0.25;entryDx=0;entryDy=0;exitX=1;exitY=0.75;exitDx=0;exitDy=0;" parent="1" source="K-8qHRho2wafCJRZF7-B-32" target="K-8qHRho2wafCJRZF7-B-5" edge="1">
          <mxGeometry width="50" height="50" relative="1" as="geometry">
            <mxPoint x="250" y="30" as="sourcePoint" />
            <mxPoint x="424" y="110" as="targetPoint" />
          </mxGeometry>
        </mxCell>
        <mxCell id="K-8qHRho2wafCJRZF7-B-60" value="sync" style="endArrow=classic;startArrow=classic;html=1;rounded=0;entryX=0.5;entryY=1;entryDx=0;entryDy=0;exitX=0.523;exitY=0.052;exitDx=0;exitDy=0;exitPerimeter=0;" parent="1" source="K-8qHRho2wafCJRZF7-B-4" target="K-8qHRho2wafCJRZF7-B-9" edge="1">
          <mxGeometry width="50" height="50" relative="1" as="geometry">
            <mxPoint x="570" as="sourcePoint" />
            <mxPoint x="620" y="-50" as="targetPoint" />
          </mxGeometry>
        </mxCell>
        <mxCell id="IB5bB0a_hDKGdR2fcK76-1" value="Client&lt;br&gt;[Angular]" style="rounded=0;whiteSpace=wrap;html=1;" parent="1" vertex="1">
          <mxGeometry x="-310" y="-15" width="170" height="65" as="geometry" />
        </mxCell>
        <mxCell id="IB5bB0a_hDKGdR2fcK76-2" value="" style="endArrow=classic;html=1;rounded=0;exitX=1;exitY=0.5;exitDx=0;exitDy=0;entryX=0;entryY=0.5;entryDx=0;entryDy=0;" parent="1" source="IB5bB0a_hDKGdR2fcK76-1" target="K-8qHRho2wafCJRZF7-B-32" edge="1">
          <mxGeometry width="50" height="50" relative="1" as="geometry">
            <mxPoint x="-70" y="30" as="sourcePoint" />
            <mxPoint x="-20" y="-20" as="targetPoint" />
          </mxGeometry>
        </mxCell>
        <mxCell id="IB5bB0a_hDKGdR2fcK76-3" value="" style="endArrow=classic;html=1;rounded=0;entryX=0;entryY=0.5;entryDx=0;entryDy=0;" parent="1" target="IB5bB0a_hDKGdR2fcK76-1" edge="1">
          <mxGeometry width="50" height="50" relative="1" as="geometry">
            <mxPoint x="-520" y="18" as="sourcePoint" />
            <mxPoint x="-450" y="-30" as="targetPoint" />
          </mxGeometry>
        </mxCell>
        <mxCell id="HNC_aLuuAxURzcLiqA25-1" value="sync" style="endArrow=classic;startArrow=classic;html=1;rounded=0;entryX=0.25;entryY=1;entryDx=0;entryDy=0;exitX=0.039;exitY=0.012;exitDx=0;exitDy=0;exitPerimeter=0;" parent="1" source="K-8qHRho2wafCJRZF7-B-5" target="K-8qHRho2wafCJRZF7-B-9" edge="1">
          <mxGeometry x="0.5385" y="-1" width="50" height="50" relative="1" as="geometry">
            <mxPoint x="619" y="10" as="sourcePoint" />
            <mxPoint x="617" y="-70" as="targetPoint" />
            <Array as="points">
              <mxPoint x="360" y="10" />
            </Array>
            <mxPoint as="offset" />
          </mxGeometry>
        </mxCell>
        <mxCell id="niPw341_ALTnHaWnRvaP-2" value="Notification Service" style="rounded=1;whiteSpace=wrap;html=1;verticalAlign=top;" vertex="1" parent="1">
          <mxGeometry x="798" y="-146.75" width="254" height="70" as="geometry" />
        </mxCell>
        <mxCell id="niPw341_ALTnHaWnRvaP-3" value="" style="html=1;verticalLabelPosition=bottom;align=center;labelBackgroundColor=#ffffff;verticalAlign=top;strokeWidth=2;strokeColor=#000000;shadow=0;dashed=0;shape=mxgraph.ios7.icons.mail;" vertex="1" parent="1">
          <mxGeometry x="910" y="-120" width="30" height="16.5" as="geometry" />
        </mxCell>
        <mxCell id="niPw341_ALTnHaWnRvaP-6" value="async" style="endArrow=classic;startArrow=classic;html=1;rounded=0;exitX=1;exitY=0.5;exitDx=0;exitDy=0;entryX=-0.001;entryY=0.29;entryDx=0;entryDy=0;entryPerimeter=0;" edge="1" parent="1" source="niPw341_ALTnHaWnRvaP-2" target="K-8qHRho2wafCJRZF7-B-3">
          <mxGeometry width="50" height="50" relative="1" as="geometry">
            <mxPoint x="1090" y="-90" as="sourcePoint" />
            <mxPoint x="1140" y="-140" as="targetPoint" />
          </mxGeometry>
        </mxCell>
        <mxCell id="niPw341_ALTnHaWnRvaP-7" value="" style="html=1;verticalLabelPosition=bottom;align=center;labelBackgroundColor=#ffffff;verticalAlign=top;strokeWidth=2;strokeColor=#000000;shadow=0;dashed=0;shape=mxgraph.ios7.icons.mail;" vertex="1" parent="1">
          <mxGeometry x="1110" y="-136.5" width="30" height="16.5" as="geometry" />
        </mxCell>
      </root>
    </mxGraphModel>
  </diagram>
</mxfile>
